<svg xmlns="http://www.w3.org/2000/svg" width="276.868" height="256.236" viewBox="0 0 276.868 256.236">
  <g id="undraw_celebrating_bol5" transform="translate(0 0)">
    <path id="Caminho_1" data-name="Caminho 1" d="M856.375,56.016s8.159-6.2,25.458,2.285,29.7,1.306,29.7,1.306L909.574,88s-17.624,6.854-33.943-2.937-21.541,0-21.541,0Z" transform="translate(-637.317 -47.857)" fill="#8ac394"/>
    <path id="Caminho_2" data-name="Caminho 2" d="M483.235,266.643a95.684,95.684,0,0,1-60.052,88.787,93.646,93.646,0,0,1-9.92,3.359,96.243,96.243,0,0,1-51.287.007q-3.442-.955-6.776-2.157a94.452,94.452,0,0,1-14.619-6.714,95.639,95.639,0,0,1,42.579-178.81q2.213-.1,4.445-.1,2.453,0,4.879.121a95.616,95.616,0,0,1,90.749,95.508Z" transform="translate(-248.511 -128.912)" fill="#8ac394"/>
    <path id="Caminho_3" data-name="Caminho 3" d="M895.459,84.314a40.412,40.412,0,0,1-20.979-5.585c-6.6-3.958-12.064-5.265-16.251-3.886a8.542,8.542,0,0,0-5.066,4.3l-.848,2.04L855.71,47.6l.088-.083c.288-.274,7.272-6.608,25.548,2.358,17.9,8.781,30.952,1.465,31.081,1.39l.531-.307-.042.612-2.084,30.215-.193.075A46.659,46.659,0,0,1,895.459,84.314ZM861.7,73.66c3.718,0,8.11,1.508,13.113,4.51,15.984,9.591,33.375,3.869,35.393,3.15L912.225,52.1c-2.65,1.277-14.979,6.3-31.167-1.64-16.8-8.24-23.878-3.23-24.724-2.545l-3,29.675a9.4,9.4,0,0,1,4.691-3.366,11.7,11.7,0,0,1,3.678-.563Z" transform="translate(-636.089 -41.81)" fill="#3f3d56"/>
    <path id="Caminho_4" data-name="Caminho 4" d="M367.41,333.39a101.987,101.987,0,0,1-27.292-3.7c-2.46-.682-4.888-1.455-7.216-2.3a101.836,101.836,0,0,1,29.775-197.554c3.153-.147,6.492-.146,9.928.021a101.852,101.852,0,0,1,32.67,196.254,100.288,100.288,0,0,1-10.545,3.569A102.033,102.033,0,0,1,367.41,333.39Zm0-203.007c-1.594,0-3.176.036-4.7.107a100.183,100.183,0,0,0-39.953,10.259,101.23,101.23,0,0,0,10.37,186.028c2.313.837,4.724,1.6,7.168,2.282a101.827,101.827,0,0,0,54.263-.007,99.573,99.573,0,0,0,10.476-3.546,101.194,101.194,0,0,0-32.459-195c-1.75-.085-3.487-.128-5.163-.128Z" transform="translate(-230.272 -100.356)" fill="#3f3d56"/>
    <rect id="Ret창ngulo_1" data-name="Ret창ngulo 1" width="149.333" height="0.653" transform="translate(0 255.117)" fill="#3f3d56"/>
    <path id="Caminho_5" data-name="Caminho 5" d="M202.473,807.907l-.35-.131c-.077-.029-7.738-2.964-11.327-9.62s-1.832-14.669-1.813-14.749l.083-.365.35.131c.077.029,7.738,2.964,11.327,9.62s1.832,14.669,1.813,14.749Zm-11.1-10.061c3.034,5.627,9.088,8.512,10.622,9.17.292-1.644,1.206-8.292-1.825-13.914s-9.087-8.51-10.622-9.17c-.292,1.645-1.206,8.292,1.825,13.914Z" transform="translate(-176.963 -552.243)" fill="#3f3d56"/>
    <path id="Caminho_6" data-name="Caminho 6" d="M172.406,818.4c6.449,3.88,8.933,11.587,8.933,11.587s-7.973,1.416-14.422-2.464-8.933-11.587-8.933-11.587S165.956,814.518,172.406,818.4Z" transform="translate(-155.829 -574.82)" fill="#8ac394"/>
    <circle id="Elipse_1" data-name="Elipse 1" cx="30.551" cy="30.551" r="30.551" transform="translate(81.199 17.107)" fill="#2f2e41"/>
    <circle id="Elipse_2" data-name="Elipse 2" cx="21.645" cy="21.645" r="21.645" transform="translate(96.466 34.52)" fill="#a0616a"/>
    <path id="Caminho_7" data-name="Caminho 7" d="M440.494,232.229s-3.207,25.654-14.831,30.865S457.73,265.5,457.73,265.5s0-23.249,1.6-24.051S440.494,232.229,440.494,232.229Z" transform="translate(-339.619 -171.253)" fill="#a0616a"/>
    <path id="Caminho_8" data-name="Caminho 8" d="M426.287,782.176l-1.6,8.418s-22.447,13.228-11.624,16.835,24.05-15.633,24.05-15.633l-2.405-9.62Z" transform="translate(-330.221 -551.644)" fill="#a0616a"/>
    <path id="Caminho_9" data-name="Caminho 9" d="M513.283,523.7l17.637,18.84,48.5-33.671s-11.224-8.819-14.831-8.819S513.283,523.7,513.283,523.7Z" transform="translate(-401.585 -356.502)" fill="#a0616a"/>
    <path id="Caminho_10" data-name="Caminho 10" d="M822.709,179.747s5.211-36.477,14.43-33.671-5.211,38.882-5.211,38.882Z" transform="translate(-615.611 -111.556)" fill="#a0616a"/>
    <path id="Caminho_11" data-name="Caminho 11" d="M440.331,315.239s-17.491-2.806-23.977,0-26.081,5.038-28.509,1.918-24.074,7.3-24.074,11.711,46.9,70.949,46.9,70.949,48.5-13.629,54.915-28.059c0,0-5.612-4.008-5.612-7.215s-2.806-6.413-2.806-6.413a16.331,16.331,0,0,0-2.405-15.232C449.15,335.682,440.331,315.239,440.331,315.239Z" transform="translate(-298.169 -227.807)" fill="#d0cde1"/>
    <path id="Caminho_12" data-name="Caminho 12" d="M595.19,270.678l5.211-1.2s12.827,3.207,21.645,14.029,24.051,14.43,24.051,14.43l18.439-50.105,15.232,5.211s-12.025,63.734-25.654,64.536-47.3-14.029-47.3-14.029Z" transform="translate(-458.239 -182.044)" fill="#d0cde1"/>
    <path id="Caminho_13" data-name="Caminho 13" d="M365.688,349.239s-8.418.4-8.418,7.616,1.2,32.067,8.418,42.89,13.629,35.274,14.029,35.675,8.017,50.907,8.017,50.907l12.827-1.2-2.405-62.932L385.73,390.125Z" transform="translate(-293.673 -252.187)" fill="#d0cde1"/>
    <path id="Caminho_14" data-name="Caminho 14" d="M611.58,563.188a95.833,95.833,0,0,1-38.94,28.836l-2.027-4.413-7.875,7.765a96.242,96.242,0,0,1-51.287.006l-3.371-2.157,18.039-20.846s.4-10.421,0-12.024-5.663-16.152-5.663-16.152c18.28-1.159,44.42-24.348,50.474-29.939.832-.77,1.286-1.208,1.286-1.208,33.669,4.808,38.48,44.091,38.48,44.091Z" transform="translate(-397.985 -365.497)" fill="#2f2e41"/>
    <ellipse id="Elipse_3" data-name="Elipse 3" cx="1.958" cy="4.08" rx="1.958" ry="4.08" transform="translate(94.382 52.873)" fill="#a0616a"/>
    <circle id="Elipse_4" data-name="Elipse 4" cx="12.729" cy="12.729" r="12.729" transform="translate(71.209 5.875)" fill="#2f2e41"/>
    <path id="Caminho_15" data-name="Caminho 15" d="M373.209,47.185a12.728,12.728,0,0,1,11.258-12.642,12.729,12.729,0,1,0,0,25.283,12.729,12.729,0,0,1-11.26-12.642Z" transform="translate(-302.653 -34.456)" fill="#2f2e41"/>
    <rect id="Ret창ngulo_2" data-name="Ret창ngulo 2" width="4.569" height="47.978" transform="translate(215.794 7.507)" fill="#2f2e41"/>
    <path id="Caminho_16" data-name="Caminho 16" d="M449.708,132.763s5.875,12.4,13.055,12.729,33.943-4.9,33.943-4.9l-8.812-18.277-23.5,2.937Z" transform="translate(-357.611 -95.23)" fill="#2f2e41"/>
  </g>
</svg>
